<?xml version="1.0" encoding="UTF-8" standalone="no"?>
<!-- Created with Inkscape (http://www.inkscape.org/) -->

<svg
   width="67.168922mm"
   height="6.2794538mm"
   viewBox="0 0 67.168922 6.2794538"
   version="1.1"
   id="svg1"
   xmlns="http://www.w3.org/2000/svg"
   xmlns:svg="http://www.w3.org/2000/svg">
  <defs
     id="defs1" />
  <g
     id="layer1"
     transform="translate(-43.838787,-72.786978)">
    <path
       style="-inkscape-font-specification:'Nimbus Roman,  Italic';fill:#ffffff;stroke-width:0.265"
       d="m 46.096563,76.858037 c -0.388056,0.416278 -0.663222,0.571501 -1.008945,0.571501 -0.402167,0 -0.642056,-0.296334 -0.642056,-0.804334 0,-0.599723 0.246945,-1.234723 0.642056,-1.643946 0.204611,-0.211667 0.486834,-0.338667 0.769056,-0.338667 0.162278,0 0.261056,0.05645 0.261056,0.141111 0,0.03528 -0.01411,0.07056 -0.04233,0.134056 -0.04939,0.09172 -0.0635,0.134056 -0.0635,0.204611 0,0.169334 0.105834,0.268112 0.275167,0.268112 0.197556,0 0.338667,-0.134056 0.338667,-0.324556 0,-0.331611 -0.310444,-0.5715 -0.740834,-0.5715 -1.058334,0 -2.046112,1.030111 -2.046112,2.130779 0,0.670278 0.381,1.058334 1.037167,1.058334 0.529167,0 0.903112,-0.211667 1.333501,-0.754945 z m 2.786947,-2.363612 c -0.303389,0 -0.578556,0.07761 -0.867834,0.232833 -0.726723,0.409222 -1.234723,1.220612 -1.234723,1.968501 0,0.613834 0.395111,0.987779 1.037167,0.987779 0.465667,0 0.917223,-0.204612 1.326446,-0.613834 0.465667,-0.458611 0.747889,-1.051279 0.747889,-1.587501 0,-0.585612 -0.409222,-0.987778 -1.008945,-0.987778 z m -0.08467,0.148166 c 0.303389,0 0.500945,0.261056 0.500945,0.663223 0,0.522111 -0.225778,1.220612 -0.543278,1.679223 -0.261056,0.373945 -0.529167,0.550334 -0.832556,0.550334 -0.331612,0 -0.550334,-0.254 -0.550334,-0.642056 0,-0.522112 0.204611,-1.143001 0.550334,-1.643946 0.275167,-0.402166 0.5715,-0.606778 0.874889,-0.606778 z m 4.564947,2.137835 c -0.381,0.479778 -0.465667,0.557389 -0.578556,0.557389 -0.0635,0 -0.112889,-0.04939 -0.112889,-0.112889 0,-0.05644 0.02822,-0.1905 0.09878,-0.4445 l 0.402167,-1.453445 c 0.03528,-0.148167 0.0635,-0.303389 0.0635,-0.402167 0,-0.261056 -0.1905,-0.430389 -0.465667,-0.430389 -0.451556,0 -0.896056,0.430389 -1.622778,1.552223 l 0.472722,-1.538112 -0.02117,-0.01411 c -0.373944,0.07761 -0.529167,0.105833 -1.143,0.218722 v 0.112889 c 0.359833,0.0071 0.451555,0.04939 0.451555,0.1905 0,0.04233 -0.0071,0.08467 -0.01411,0.119944 l -0.677333,2.469447 h 0.529167 c 0.331611,-1.114779 0.395111,-1.270001 0.705556,-1.749779 0.423333,-0.649112 0.783167,-1.00189 1.044222,-1.00189 0.105834,0 0.169334,0.07761 0.169334,0.204611 0,0.08467 -0.04233,0.317501 -0.09878,0.536223 l -0.310445,1.164167 c -0.09172,0.366889 -0.112889,0.458612 -0.112889,0.529167 0,0.268112 0.09878,0.381001 0.331612,0.381001 0.3175,0 0.493889,-0.141112 0.987778,-0.797279 z m 2.370669,-2.194279 h -0.564445 l 0.197556,-0.726723 c 0.0071,-0.01411 0.0071,-0.02822 0.0071,-0.04233 0,-0.04233 -0.01411,-0.0635 -0.05644,-0.0635 -0.04233,0 -0.0635,0.0071 -0.105833,0.0635 -0.275167,0.352778 -0.712612,0.712611 -0.93839,0.776111 -0.176389,0.05644 -0.225778,0.09878 -0.225778,0.176389 0,0.0071 0,0.02117 0.0071,0.04233 h 0.522111 l -0.508,1.940279 c -0.01411,0.0635 -0.02117,0.09172 -0.04233,0.148167 -0.07056,0.232833 -0.119945,0.451555 -0.119945,0.522111 0,0.148167 0.148167,0.261056 0.338667,0.261056 0.324556,0 0.557389,-0.197556 1.001889,-0.853723 l -0.09172,-0.04939 c -0.345722,0.4445 -0.458611,0.557389 -0.5715,0.557389 -0.0635,0 -0.105834,-0.04939 -0.105834,-0.141111 0,-0.0071 0,-0.0071 0.0071,-0.03528 l 0.620889,-2.349501 h 0.592667 z m 3.139728,2.243668 -0.197556,0.197556 c -0.225778,0.225778 -0.303389,0.289278 -0.366889,0.289278 -0.05644,0 -0.09878,-0.04233 -0.09878,-0.09172 0,-0.141111 0.296333,-1.354667 0.627945,-2.561168 0.02117,-0.07056 0.02822,-0.08467 0.04233,-0.148167 l -0.04939,-0.02117 -0.430389,0.04939 -0.02117,0.02117 -0.07761,0.338667 c -0.05644,-0.261056 -0.261056,-0.409222 -0.564445,-0.409222 -0.938389,0 -2.01789,1.284111 -2.01789,2.405946 0,0.493889 0.268111,0.783167 0.719667,0.783167 0.49389,0 0.797279,-0.232834 1.418168,-1.107723 -0.148167,0.578556 -0.162278,0.635 -0.162278,0.811389 0,0.204611 0.08467,0.289278 0.282222,0.289278 0.282223,0 0.451556,-0.134056 0.980723,-0.776111 z m -1.093612,-2.180168 c 0.239889,0.01411 0.395111,0.183444 0.395111,0.430389 0,0.592667 -0.359833,1.425223 -0.839612,1.947335 -0.169333,0.1905 -0.409222,0.310444 -0.613833,0.310444 -0.254,0 -0.409223,-0.197555 -0.409223,-0.522111 0,-0.395112 0.261056,-1.107723 0.571501,-1.552223 0.282222,-0.409223 0.606778,-0.635001 0.896056,-0.613834 z m 3.817057,2.20839 c -0.388056,0.416278 -0.663222,0.571501 -1.008945,0.571501 -0.402167,0 -0.642056,-0.296334 -0.642056,-0.804334 0,-0.599723 0.246945,-1.234723 0.642056,-1.643946 0.204611,-0.211667 0.486834,-0.338667 0.769056,-0.338667 0.162278,0 0.261056,0.05645 0.261056,0.141111 0,0.03528 -0.01411,0.07056 -0.04233,0.134056 -0.04939,0.09172 -0.0635,0.134056 -0.0635,0.204611 0,0.169334 0.105833,0.268112 0.275166,0.268112 0.197556,0 0.338667,-0.134056 0.338667,-0.324556 0,-0.331611 -0.310444,-0.5715 -0.740834,-0.5715 -1.058334,0 -2.046112,1.030111 -2.046112,2.130779 0,0.670278 0.381,1.058334 1.037167,1.058334 0.529167,0 0.903112,-0.211667 1.333501,-0.754945 z m 2.659944,-2.27189 h -0.564445 l 0.197556,-0.726723 c 0.0071,-0.01411 0.0071,-0.02822 0.0071,-0.04233 0,-0.04233 -0.01411,-0.0635 -0.05644,-0.0635 -0.04233,0 -0.0635,0.0071 -0.105833,0.0635 -0.275167,0.352778 -0.712612,0.712611 -0.93839,0.776111 -0.176389,0.05644 -0.225778,0.09878 -0.225778,0.176389 0,0.0071 0,0.02117 0.0071,0.04233 h 0.522111 l -0.508,1.940279 c -0.01411,0.0635 -0.02117,0.09172 -0.04233,0.148167 -0.07056,0.232833 -0.119945,0.451555 -0.119945,0.522111 0,0.148167 0.148167,0.261056 0.338667,0.261056 0.324556,0 0.557389,-0.197556 1.001889,-0.853723 l -0.09172,-0.04939 c -0.345722,0.4445 -0.458611,0.557389 -0.5715,0.557389 -0.0635,0 -0.105834,-0.04939 -0.105834,-0.141111 0,-0.0071 0,-0.0071 0.0071,-0.03528 l 0.620889,-2.349501 h 0.592667 z m 4.014613,-0.148167 c -0.148167,-0.282222 -0.254,-0.359834 -0.500945,-0.359834 -0.296333,0 -0.585611,0.127001 -0.797278,0.352778 -0.359834,0.36689 -0.578556,0.910168 -0.578556,1.411112 0,0.444501 0.275167,0.783168 0.627945,0.783168 0.296333,0 0.613834,-0.183445 0.867834,-0.500945 0.04233,0.303389 0.296333,0.508 0.627945,0.508 0.6985,0 1.298223,-0.776111 1.298223,-1.679223 0,-1.150056 -1.00189,-2.046113 -2.300113,-2.046113 -1.425223,0 -2.554113,1.086557 -2.554113,2.455335 0,1.333501 1.121834,2.370669 2.57528,2.370669 0.500944,0 0.853722,-0.09172 1.516945,-0.402167 l -0.08467,-0.204612 c -0.543278,0.246945 -0.889,0.331612 -1.354667,0.331612 -1.213556,0 -2.067279,-0.853723 -2.067279,-2.060224 0,-1.326445 0.8255,-2.27189 1.975557,-2.27189 1.100667,0 2.010834,0.860778 2.010834,1.89089 0,0.423334 -0.176389,0.881945 -0.437445,1.164167 -0.134055,0.141112 -0.310444,0.218723 -0.486833,0.218723 -0.169334,0 -0.261056,-0.105834 -0.261056,-0.296334 0,-0.03528 0.0071,-0.09878 0.02117,-0.148167 l 0.458611,-1.778001 h -0.486833 z m -0.402167,-0.04939 c 0.197556,0.01411 0.296334,0.176389 0.282222,0.437445 -0.04233,0.797278 -0.437444,1.502834 -0.839611,1.502834 -0.261056,0 -0.416278,-0.225778 -0.416278,-0.592667 0,-0.381 0.127,-0.726723 0.359833,-0.994834 0.197556,-0.225778 0.444501,-0.366889 0.613834,-0.352778 z m 3.005671,2.187224 -0.141111,1.121834 h 0.112889 c 0.0635,-0.119945 0.09172,-0.148167 0.169333,-0.148167 0.07761,0 0.204611,0.02822 0.345722,0.0635 0.162278,0.04939 0.268112,0.07056 0.388056,0.07056 0.592667,0 1.016001,-0.381001 1.016001,-0.917223 0,-0.275167 -0.148167,-0.578556 -0.479778,-0.987779 -0.268111,-0.331611 -0.381,-0.550333 -0.381,-0.747889 0,-0.232833 0.148166,-0.373945 0.395111,-0.373945 0.366889,0 0.578556,0.261056 0.649111,0.81139 h 0.112889 l 0.141112,-0.980723 h -0.09878 c -0.0635,0.09878 -0.105834,0.127 -0.211667,0.127 -0.05644,0 -0.119945,-0.01411 -0.254,-0.04939 -0.176389,-0.05644 -0.275167,-0.07055 -0.395112,-0.07055 -0.522111,0 -0.853722,0.303389 -0.853722,0.776111 0,0.225778 0.148166,0.529167 0.4445,0.910167 0.275167,0.359834 0.395111,0.606779 0.395111,0.81139 0,0.324556 -0.211666,0.543278 -0.522111,0.543278 -0.395111,0 -0.606778,-0.289278 -0.719667,-0.959556 z m 4.783668,-2.08139 c -0.303389,0 -0.578555,0.07761 -0.867833,0.232833 -0.726723,0.409222 -1.234723,1.220612 -1.234723,1.968501 0,0.613834 0.395111,0.987779 1.037167,0.987779 0.465667,0 0.917223,-0.204612 1.326445,-0.613834 0.465667,-0.458611 0.74789,-1.051279 0.74789,-1.587501 0,-0.585612 -0.409223,-0.987778 -1.008946,-0.987778 z m -0.08467,0.148166 c 0.303389,0 0.500944,0.261056 0.500944,0.663223 0,0.522111 -0.225777,1.220612 -0.543278,1.679223 -0.261055,0.373945 -0.529167,0.550334 -0.832556,0.550334 -0.331611,0 -0.550333,-0.254 -0.550333,-0.642056 0,-0.522112 0.204611,-1.143001 0.550333,-1.643946 0.275167,-0.402166 0.571501,-0.606778 0.87489,-0.606778 z m 4.572003,2.137835 c -0.373945,0.465667 -0.472722,0.557389 -0.585611,0.557389 -0.04939,0 -0.07761,-0.04233 -0.07761,-0.119944 0,-0.04233 0,-0.04233 0.134056,-0.550334 l 0.557389,-2.109612 h -0.522111 c -0.381,1.044222 -0.458611,1.220611 -0.776112,1.721556 -0.423333,0.670278 -0.769056,1.030112 -0.994834,1.030112 -0.09172,0 -0.148166,-0.07056 -0.148166,-0.176389 0,-0.02117 0,-0.04233 0.0071,-0.0635 l 0.642056,-2.561168 -0.02117,-0.01411 c -0.409222,0.09878 -0.670278,0.141111 -1.058334,0.1905 v 0.09878 c 0.282223,0.0071 0.282223,0.0071 0.352778,0.04233 0.03528,0.01411 0.07056,0.07761 0.07056,0.127 0,0.0635 -0.03528,0.232833 -0.09878,0.472722 l -0.261056,1.00189 c -0.134055,0.522111 -0.176389,0.740834 -0.176389,0.867834 0,0.261056 0.127001,0.388056 0.373945,0.388056 0.500945,0 0.87489,-0.381001 1.686279,-1.742724 -0.211667,0.762001 -0.3175,1.234723 -0.3175,1.389946 0,0.218722 0.127,0.338667 0.338667,0.338667 0.331611,0 0.486833,-0.134056 0.973667,-0.825501 z m 3.520723,0 c -0.381,0.479778 -0.465667,0.557389 -0.578556,0.557389 -0.0635,0 -0.112889,-0.04939 -0.112889,-0.112889 0,-0.05644 0.02822,-0.1905 0.09878,-0.4445 l 0.402167,-1.453445 c 0.03528,-0.148167 0.0635,-0.303389 0.0635,-0.402167 0,-0.261056 -0.1905,-0.430389 -0.465667,-0.430389 -0.451556,0 -0.896056,0.430389 -1.622779,1.552223 l 0.472723,-1.538112 -0.02117,-0.01411 c -0.373945,0.07761 -0.529167,0.105833 -1.143001,0.218722 v 0.112889 c 0.359834,0.0071 0.451556,0.04939 0.451556,0.1905 0,0.04233 -0.0071,0.08467 -0.01411,0.119944 l -0.677334,2.469447 h 0.529167 c 0.331612,-1.114779 0.395112,-1.270001 0.705556,-1.749779 0.423334,-0.649112 0.783168,-1.00189 1.044223,-1.00189 0.105834,0 0.169334,0.07761 0.169334,0.204611 0,0.08467 -0.04233,0.317501 -0.09878,0.536223 l -0.310445,1.164167 c -0.09172,0.366889 -0.112889,0.458612 -0.112889,0.529167 0,0.268112 0.09878,0.381001 0.331612,0.381001 0.3175,0 0.493889,-0.141112 0.987778,-0.797279 z m 3.548949,0.04233 c -0.388055,0.444501 -0.458611,0.500945 -0.578556,0.500945 -0.07055,0 -0.127,-0.05644 -0.127,-0.141111 0,-0.112889 0.218723,-0.945445 0.458612,-1.735668 0.162278,-0.564445 0.303389,-1.079501 0.6985,-2.624668 l -0.03528,-0.03528 c -0.366889,0.07761 -0.620889,0.112889 -1.0795,0.162278 v 0.119944 c 0.388055,0.01411 0.437444,0.03528 0.437444,0.183445 0,0.09878 -0.0071,0.119944 -0.105833,0.493889 l -0.310445,1.157112 c -0.05644,-0.296334 -0.183444,-0.409222 -0.458611,-0.409222 -0.917223,0 -2.060224,1.326445 -2.060224,2.384779 0,0.500945 0.282223,0.804334 0.740834,0.804334 0.479778,0 0.790223,-0.225778 1.270001,-0.931334 -0.07761,0.359833 -0.09172,0.465667 -0.09172,0.627945 0,0.1905 0.119944,0.3175 0.296333,0.3175 0.296334,0 0.670278,-0.289278 1.030112,-0.804334 z m -1.072445,-2.166057 c 0.211667,0.01411 0.3175,0.148167 0.3175,0.402167 0,1.072445 -0.733778,2.286002 -1.382889,2.286002 -0.246945,0 -0.409223,-0.183445 -0.409223,-0.465667 0,-0.578556 0.352778,-1.404057 0.818445,-1.897946 0.197556,-0.204611 0.458612,-0.338667 0.656167,-0.324556 z m 1.580444,0.155223 h 0.635001 l -0.62089,2.963335 c -0.155222,0.754945 -0.388055,1.143001 -0.684389,1.143001 -0.08467,0 -0.141111,-0.04939 -0.141111,-0.112889 0,-0.02822 0.0071,-0.04233 0.02822,-0.07761 0.02822,-0.04233 0.03528,-0.07056 0.03528,-0.112889 0,-0.148167 -0.127,-0.268112 -0.275167,-0.268112 -0.148167,0 -0.261056,0.127 -0.261056,0.289278 0,0.246945 0.239889,0.430389 0.55739,0.430389 0.627944,0 1.114778,-0.691444 1.411112,-1.996723 l 0.508,-2.257779 h 0.769056 l 0.04233,-0.225778 h -0.762 c 0.204611,-1.114779 0.465667,-1.608668 0.860778,-1.608668 0.09878,0 0.155222,0.03528 0.155222,0.09172 0,0.01411 -0.0071,0.03528 -0.02822,0.0635 -0.03528,0.05644 -0.04233,0.09172 -0.04233,0.148167 0,0.169334 0.105833,0.282223 0.261056,0.282223 0.162277,0 0.296333,-0.127001 0.296333,-0.282223 0,-0.268111 -0.261056,-0.458611 -0.613834,-0.458611 -0.338667,0 -0.613833,0.155222 -0.867834,0.479778 -0.211666,0.282222 -0.352778,0.606778 -0.564444,1.284112 h -0.649112 z m 3.887612,-0.3175 c -0.303389,0 -0.578556,0.07761 -0.867834,0.232833 -0.726723,0.409222 -1.234723,1.220612 -1.234723,1.968501 0,0.613834 0.395111,0.987779 1.037167,0.987779 0.465667,0 0.917223,-0.204612 1.326446,-0.613834 0.465667,-0.458611 0.747889,-1.051279 0.747889,-1.587501 0,-0.585612 -0.409222,-0.987778 -1.008945,-0.987778 z m -0.08467,0.148166 c 0.303389,0 0.500945,0.261056 0.500945,0.663223 0,0.522111 -0.225778,1.220612 -0.543278,1.679223 -0.261056,0.373945 -0.529167,0.550334 -0.832556,0.550334 -0.331612,0 -0.550334,-0.254 -0.550334,-0.642056 0,-0.522112 0.204611,-1.143001 0.550334,-1.643946 0.275167,-0.402166 0.5715,-0.606778 0.874889,-0.606778 z m 2.173111,2.963336 c 0.366889,-1.206501 0.486834,-1.495779 0.81139,-2.039057 0.239889,-0.395112 0.430389,-0.613834 0.550333,-0.613834 0.04939,0 0.07761,0.02822 0.112889,0.09878 0.05644,0.119944 0.112889,0.155222 0.254001,0.155222 0.211666,0 0.324555,-0.127 0.324555,-0.352778 0,-0.211667 -0.134055,-0.359833 -0.331611,-0.359833 -0.162278,0 -0.352778,0.105833 -0.536223,0.296333 -0.289278,0.303389 -0.5715,0.712612 -0.684389,0.994834 l -0.09878,0.254 0.373945,-1.531056 -0.02117,-0.01411 c -0.515056,0.09172 -0.578556,0.105833 -1.093612,0.1905 v 0.119944 c 0.155223,-0.02822 0.183445,-0.03528 0.23989,-0.03528 0.155222,0 0.246944,0.07056 0.246944,0.197556 0,0.09878 0,0.09878 -0.112889,0.578556 l -0.5715,2.060224 z m 6.872115,-0.825501 c -0.0282,0.03528 -0.0635,0.07056 -0.0917,0.112889 -0.11994,0.141111 -0.18344,0.218722 -0.1905,0.225778 -0.15522,0.169333 -0.22578,0.218722 -0.324556,0.218722 -0.05644,0 -0.08467,-0.03528 -0.08467,-0.112889 0,-0.02822 0.02822,-0.148166 0.07055,-0.3175 l 0.479776,-1.770946 c 0.007,-0.03528 0.0212,-0.148166 0.0212,-0.197555 0,-0.254 -0.17639,-0.4445 -0.40922,-0.4445 -0.141115,0 -0.282226,0.04939 -0.451559,0.155222 -0.345723,0.225778 -0.635001,0.564445 -1.121834,1.340556 0.183444,-0.550333 0.282222,-0.938389 0.282222,-1.072445 0,-0.254 -0.162278,-0.423333 -0.402167,-0.423333 -0.430389,0 -0.924278,0.465666 -1.57339,1.488723 l 0.409223,-1.474612 -0.02117,-0.01411 c -0.381,0.07761 -0.529167,0.105833 -1.128889,0.218722 v 0.112889 c 0.324555,0.0071 0.324555,0.0071 0.388055,0.04233 0.03528,0.01411 0.0635,0.0635 0.0635,0.112889 0,0.08467 -0.169333,0.733778 -0.416278,1.615723 -0.155222,0.536223 -0.183444,0.649112 -0.275167,1.008946 h 0.529167 c 0.338667,-1.114779 0.444501,-1.38289 0.68439,-1.749779 0.402167,-0.606779 0.818445,-0.994834 1.058334,-0.994834 0.09172,0 0.141111,0.0635 0.141111,0.176389 0,0.09172 -0.211667,0.924278 -0.493889,1.919112 -0.05644,0.204611 -0.08467,0.303389 -0.176389,0.649112 h 0.529167 c 0.282222,-1.100668 0.423333,-1.460501 0.783167,-1.954391 0.345722,-0.479778 0.6985,-0.790222 0.903112,-0.790222 0.07761,0 0.141111,0.0635 0.141111,0.148166 0,0.03528 -0.01411,0.105834 -0.04939,0.246945 l -0.409223,1.622779 c -0.07056,0.275167 -0.09172,0.395111 -0.09172,0.465667 0,0.211667 0.09878,0.324556 0.282223,0.324556 0.331611,0 0.642053,-0.232834 1.016003,-0.754945 l 0.0353,-0.04939 z m 0.81139,0.119945 c -0.21166,0 -0.38805,0.176389 -0.38805,0.402166 0,0.204612 0.17639,0.381001 0.37394,0.381001 0.22578,0 0.40923,-0.169334 0.40923,-0.381001 0,-0.218722 -0.18345,-0.402166 -0.39512,-0.402166 z m 4.45912,-0.07056 -0.19756,0.197556 c -0.22578,0.225778 -0.30339,0.289278 -0.36689,0.289278 -0.0564,0 -0.0988,-0.04233 -0.0988,-0.09172 0,-0.141111 0.29634,-1.354667 0.62795,-2.561168 0.0212,-0.07056 0.0282,-0.08467 0.0423,-0.148167 l -0.0494,-0.02117 -0.43039,0.04939 -0.0212,0.02117 -0.0776,0.338667 c -0.0564,-0.261056 -0.26106,-0.409222 -0.56445,-0.409222 -0.93839,0 -2.01789,1.284111 -2.01789,2.405946 0,0.493889 0.26811,0.783167 0.71967,0.783167 0.49389,0 0.79728,-0.232834 1.41817,-1.107723 -0.14817,0.578556 -0.16228,0.635 -0.16228,0.811389 0,0.204611 0.0847,0.289278 0.28222,0.289278 0.28222,0 0.45156,-0.134056 0.98072,-0.776111 z m -1.09361,-2.180168 c 0.23988,0.01411 0.39511,0.183444 0.39511,0.430389 0,0.592667 -0.35984,1.425223 -0.83961,1.947335 -0.16934,0.1905 -0.40923,0.310444 -0.61384,0.310444 -0.254,0 -0.40922,-0.197555 -0.40922,-0.522111 0,-0.395112 0.26105,-1.107723 0.5715,-1.552223 0.28222,-0.409223 0.60678,-0.635001 0.89606,-0.613834 z m 2.20133,2.95628 c 0.36689,-1.206501 0.48683,-1.495779 0.81139,-2.039057 0.23989,-0.395112 0.43039,-0.613834 0.55033,-0.613834 0.0494,0 0.0776,0.02822 0.11289,0.09878 0.0564,0.119944 0.11289,0.155222 0.254,0.155222 0.21167,0 0.32456,-0.127 0.32456,-0.352778 0,-0.211667 -0.13406,-0.359833 -0.33161,-0.359833 -0.16228,0 -0.35278,0.105833 -0.53623,0.296333 -0.28928,0.303389 -0.5715,0.712612 -0.68439,0.994834 l -0.0988,0.254 0.37394,-1.531056 -0.0212,-0.01411 c -0.51505,0.09172 -0.57855,0.105833 -1.09361,0.1905 v 0.119944 c 0.15522,-0.02822 0.18345,-0.03528 0.23989,-0.03528 0.15522,0 0.24695,0.07056 0.24695,0.197556 0,0.09878 0,0.09878 -0.11289,0.578556 l -0.5715,2.060224 z m 4.05695,-3.01978 h -0.56445 l 0.19756,-0.726723 c 0.007,-0.01411 0.007,-0.02822 0.007,-0.04233 0,-0.04233 -0.0141,-0.0635 -0.0564,-0.0635 -0.0423,0 -0.0635,0.0071 -0.10584,0.0635 -0.27516,0.352778 -0.71261,0.712611 -0.93839,0.776111 -0.17638,0.05644 -0.22577,0.09878 -0.22577,0.176389 0,0.0071 0,0.02117 0.007,0.04233 h 0.52211 l -0.508,1.940279 c -0.0141,0.0635 -0.0212,0.09172 -0.0423,0.148167 -0.0706,0.232833 -0.11994,0.451555 -0.11994,0.522111 0,0.148167 0.14816,0.261056 0.33866,0.261056 0.32456,0 0.55739,-0.197556 1.00189,-0.853723 l -0.0917,-0.04939 c -0.34572,0.4445 -0.45861,0.557389 -0.5715,0.557389 -0.0635,0 -0.10583,-0.04939 -0.10583,-0.141111 0,-0.0071 0,-0.0071 0.007,-0.03528 l 0.62089,-2.349501 h 0.59267 z"
       id="text1"
       aria-label="contact@soundform.art" />
  </g>
</svg>
