<?xml version="1.0" encoding="UTF-8" standalone="no"?>
<!-- Created with Inkscape (http://www.inkscape.org/) -->

<svg
   width="5.8208332mm"
   height="5.8208418mm"
   viewBox="0 0 5.8208332 5.8208418"
   version="1.1"
   id="svg1"
   xmlns="http://www.w3.org/2000/svg"
   xmlns:svg="http://www.w3.org/2000/svg">
  <defs
     id="defs1" />
  <g
     id="layer1"
     transform="translate(-168.53959,-111.12501)">
    <path
       fill-rule="evenodd"
       clip-rule="evenodd"
       d="m 171.45,115.62292 c 0.87675,0 1.5875,-0.71075 1.5875,-1.5875 0,-0.87675 -0.71075,-1.5875 -1.5875,-1.5875 -0.87675,0 -1.5875,0.71075 -1.5875,1.5875 0,0.87675 0.71075,1.5875 1.5875,1.5875 z m 0,-0.52917 c 0.58449,0 1.05833,-0.47384 1.05833,-1.05833 0,-0.5845 -0.47384,-1.05833 -1.05833,-1.05833 -0.5845,0 -1.05833,0.47383 -1.05833,1.05833 0,0.58449 0.47383,1.05833 1.05833,1.05833 z"
       fill="#0F0F0F"
       id="path1"
       style="fill:#ffffff;fill-opacity:1;stroke-width:0.264583" />
    <path
       d="m 173.0375,112.18334 c -0.14613,0 -0.26458,0.11846 -0.26458,0.26458 0,0.14612 0.11845,0.26458 0.26458,0.26458 0.14613,0 0.26458,-0.11846 0.26458,-0.26458 0,-0.14612 -0.11845,-0.26458 -0.26458,-0.26458 z"
       fill="#0F0F0F"
       id="path2"
       style="fill:#ffffff;fill-opacity:1;stroke-width:0.264583" />
    <path
       fill-rule="evenodd"
       clip-rule="evenodd"
       d="m 168.71261,111.99179 c -0.17303,0.33959 -0.17303,0.78413 -0.17303,1.67321 v 0.74084 c 0,0.88908 0,1.33363 0.17303,1.6732 0.1522,0.29871 0.39505,0.54157 0.69376,0.69376 0.33959,0.17304 0.78413,0.17304 1.67321,0.17304 h 0.74084 c 0.88908,0 1.33363,0 1.6732,-0.17304 0.29871,-0.15219 0.54157,-0.39505 0.69376,-0.69376 0.17304,-0.33957 0.17304,-0.78412 0.17304,-1.6732 V 113.665 c 0,-0.88908 0,-1.33362 -0.17304,-1.67321 -0.15219,-0.29871 -0.39505,-0.54156 -0.69376,-0.69376 -0.33957,-0.17303 -0.78412,-0.17303 -1.6732,-0.17303 h -0.74084 c -0.88908,0 -1.33362,0 -1.67321,0.17303 -0.29871,0.1522 -0.54156,0.39505 -0.69376,0.69376 z m 3.10781,-0.33762 h -0.74084 c -0.45327,0 -0.7614,4.1e-4 -0.99957,0.0199 -0.232,0.0189 -0.35064,0.0533 -0.4334,0.0955 -0.19914,0.10147 -0.36104,0.26337 -0.46251,0.46251 -0.0422,0.0828 -0.0765,0.2014 -0.0955,0.4334 -0.0195,0.23817 -0.0199,0.5463 -0.0199,0.99957 v 0.74084 c 0,0.45328 4.1e-4,0.76139 0.0199,0.99957 0.019,0.23201 0.0533,0.35065 0.0955,0.43341 0.10147,0.19913 0.26337,0.36102 0.46251,0.46249 0.0828,0.0422 0.2014,0.0765 0.4334,0.0955 0.23817,0.0195 0.5463,0.0199 0.99957,0.0199 h 0.74084 c 0.45328,0 0.76139,-4.2e-4 0.99957,-0.0199 0.23201,-0.0189 0.35065,-0.0533 0.43341,-0.0955 0.19913,-0.10147 0.36102,-0.26336 0.46249,-0.46249 0.0422,-0.0828 0.0765,-0.2014 0.0955,-0.43341 0.0194,-0.23818 0.0199,-0.54629 0.0199,-0.99957 V 113.665 c 0,-0.45327 -4.2e-4,-0.7614 -0.0199,-0.99957 -0.0189,-0.232 -0.0533,-0.35064 -0.0955,-0.4334 -0.10147,-0.19914 -0.26336,-0.36104 -0.46249,-0.46251 -0.0828,-0.0422 -0.2014,-0.0765 -0.43341,-0.0955 -0.23818,-0.0195 -0.54629,-0.0199 -0.99957,-0.0199 z"
       fill="#0F0F0F"
       id="path3"
       style="fill:#ffffff;fill-opacity:1;stroke-width:0.264583" />
  </g>
</svg>
